<?xml version="1.0" encoding="utf-8"?>
<!-- Generator: Adobe Illustrator 26.2.0, SVG Export Plug-In . SVG Version: 6.00 Build 0)  -->
<svg version="1.1" id="Ebene_1" xmlns:svgjs="http://svgjs.com/svgjs"
	 xmlns="http://www.w3.org/2000/svg" xmlns:xlink="http://www.w3.org/1999/xlink" x="0px" y="0px" viewBox="0 0 512 512"
	 style="enable-background:new 0 0 512 512;" xml:space="preserve">
<style type="text/css">
	.st0{fill:#000;}
	.st1{fill-rule:evenodd;clip-rule:evenodd;fill:#C5CCD2;}
</style>
<g>
	<g>
		<g>
			<path class="st0" d="M426.7,343.2c-5.5,0-10,4.5-10,10v17.4c0.5,13.3,19.5,13.2,20,0v-17.4C436.7,347.7,432.2,343.2,426.7,343.2z
				"/>
			<path class="st0" d="M394,310.6c0-5.5-4.5-10-10-10h-17.4c-13.3,0.5-13.2,19.5,0,20H384C389.6,320.6,394,316.1,394,310.6z"/>
			<path class="st0" d="M389.5,333.6l-12.3,12.3c-9,9.7,4.5,23.2,14.1,14.1l12.3-12.3C412.6,338.1,399.1,324.6,389.5,333.6z"/>
			<path class="st0" d="M245.7,424h-25.2c-13.3,0.5-13.2,19.5,0,20h25.2C259,443.5,259,424.4,245.7,424z"/>
			<path class="st0" d="M227.3,370.4c-3.9-3.9-10.2-3.9-14.1,0l-17.8,17.8c-9,9.7,4.5,23.2,14.1,14.1l17.8-17.8
				C231.2,380.6,231.2,374.3,227.3,370.4L227.3,370.4z"/>
			<path class="st0" d="M163.7,342c-5.5,0-10,4.5-10,10v25.2c0.5,13.3,19.5,13.2,20,0V352C173.7,346.4,169.2,342,163.7,342z"/>
			<path class="st0" d="M114.3,370.4c-9.7-9-23.2,4.5-14.1,14.1l17.8,17.8c9.7,9,23.2-4.5,14.1-14.1L114.3,370.4z"/>
			<path class="st0" d="M106.9,424H81.7c-13.3,0.5-13.2,19.5,0,20h25.2C120.2,443.5,120.2,424.4,106.9,424z"/>
		</g>
		<g>
			<path class="st1" d="M261.6,40.1v97l0.7-0.2c52.5-13.8,80.1,14,131.8,0.2v-97C342.2,54,314.5,25.9,261.6,40.1z"/>
			<path class="st1" d="M404.2,279.6c-13.3,6.5-22.5,20.2-22.5,36c0.3,41.8,56.1,55,75.4,18.6C442.4,313.4,424.5,294.9,404.2,279.6
				L404.2,279.6z"/>
			<path class="st1" d="M221.7,434c0-32-26-58-58-58c-52.3-0.1-77.6,64.6-40,100h80C214.8,465.4,221.7,450.5,221.7,434z"/>
		</g>
		<path class="st0" d="M437,294.9c-44.7-44.7-102.9-70.8-165.4-74.5V36c-0.5-13.3-19.5-13.2-20,0v184C115.7,219.6-2.8,340,0,475.9
			c0,5.5,4.5,10,10,10h492c5.5,0,10-4.5,10-10C512,407.6,485.4,343.3,437,294.9L437,294.9z M20.3,465.9
			c5.2-124,106.6-223.6,231.3-225.9v15c0.5,13.3,19.5,13.2,20,0v-14.6c119.6,7.8,215.2,105.2,220.2,225.5H20.3z"/>
	</g>
</g>
</svg>
